<svg width="53" height="50" viewBox="0 0 53 50" fill="none" xmlns="http://www.w3.org/2000/svg">
<path d="M1.04688 9V37.6154H26.937C26.404 36.0764 26.133 34.4664 26.1342 32.8462H11.0818C11.0818 31.5813 10.5532 30.3682 9.61225 29.4738C8.67129 28.5794 7.39507 28.0769 6.06436 28.0769V18.5385C8.84905 18.5385 11.0818 16.4162 11.0818 13.7692H36.1692C36.1692 15.0341 36.6978 16.2472 37.6388 17.1416C38.5797 18.036 39.856 18.5385 41.1867 18.5385V18.6815C42.8675 18.6815 44.5484 18.9677 46.2041 19.4923V9H1.04688ZM23.6255 16.1538C19.3607 16.2254 16.0993 19.2538 16.0993 23.3077C16.0993 27.3615 19.3607 30.3185 23.6255 30.4615C24.5788 30.4615 25.5572 30.2708 26.4855 29.9131C27.1628 27.29 28.2918 24.81 31.0765 22.3777C30.7754 19.2062 27.6144 16.0823 23.6255 16.1538ZM47.7846 23.9515L38.0758 33.2515L34.689 29.9846L31.1517 33.3708L38.0507 40L51.2969 27.3138L47.7846 23.9515Z" fill="black"/>
<path d="M38.0758 33.2515L47.7846 23.9515L51.2969 27.3138L38.0507 40L31.1517 33.3708L34.689 29.9846L38.0758 33.2515Z" fill="#C0028A"/>
</svg>
