<svg width="33" height="50" viewBox="0 0 33 50" fill="none" xmlns="http://www.w3.org/2000/svg">
<path d="M26.4312 3.3C27.292 3.3 28.1174 3.6266 28.726 4.20797C29.3346 4.78933 29.6766 5.57783 29.6766 6.4V43.6C29.6766 44.4222 29.3346 45.2107 28.726 45.792C28.1174 46.3734 27.292 46.7 26.4312 46.7H6.95937C6.09866 46.7 5.27321 46.3734 4.66459 45.792C4.05598 45.2107 3.71406 44.4222 3.71406 43.6V6.4C3.71406 5.57783 4.05598 4.78933 4.66459 4.20797C5.27321 3.6266 6.09866 3.3 6.95937 3.3H26.4312ZM6.95937 0.199997C5.23795 0.199997 3.58704 0.853209 2.36981 2.01593C1.15258 3.17866 0.46875 4.75565 0.46875 6.4V43.6C0.46875 45.2443 1.15258 46.8213 2.36981 47.9841C3.58704 49.1468 5.23795 49.8 6.95937 49.8H26.4312C28.1527 49.8 29.8036 49.1468 31.0208 47.9841C32.238 46.8213 32.9219 45.2443 32.9219 43.6V6.4C32.9219 4.75565 32.238 3.17866 31.0208 2.01593C29.8036 0.853209 28.1527 0.199997 26.4312 0.199997L6.95937 0.199997Z" fill="#18191A"/>
<path d="M16.6953 43.6C17.556 43.6 18.3815 43.2734 18.9901 42.692C19.5987 42.1107 19.9406 41.3222 19.9406 40.5C19.9406 39.6778 19.5987 38.8893 18.9901 38.308C18.3815 37.7266 17.556 37.4 16.6953 37.4C15.8346 37.4 15.0091 37.7266 14.4005 38.308C13.7919 38.8893 13.45 39.6778 13.45 40.5C13.45 41.3222 13.7919 42.1107 14.4005 42.692C15.0091 43.2734 15.8346 43.6 16.6953 43.6Z" fill="#18191A"/>
</svg>
